<svg width="20" height="20" viewBox="0 0 20 20" fill="none" xmlns="http://www.w3.org/2000/svg">
<path fill-rule="evenodd" clip-rule="evenodd" d="M5.40255 2.34607C2.34289 3.33114 0.97818 6.6714 2.00398 9.85793C2.52452 11.3584 3.37108 12.707 4.48332 13.8135C6.00914 15.2954 7.68541 16.5995 9.48736 17.7076L9.69199 17.8301C9.88797 17.9474 10.1331 17.9453 10.3271 17.8248L10.5181 17.706C12.3176 16.5995 13.9939 15.2954 15.5145 13.8187C16.6319 12.707 17.4785 11.3584 17.9947 9.87096C19.0242 6.67334 17.6539 3.3315 14.5933 2.34612L14.3719 2.28019C12.9686 1.89424 11.4774 2.08442 10.2204 2.79612L9.99695 2.92858L9.77745 2.79686C8.45157 2.04453 6.86696 1.87502 5.40255 2.34607ZM9.47883 4.04523L9.64277 4.16282C9.85889 4.3176 10.1505 4.31452 10.3633 4.15521C11.4716 3.32547 12.906 3.08402 14.22 3.50558C16.5914 4.26904 17.6705 6.9008 16.8386 9.48499C16.3874 10.7848 15.6405 11.9746 14.6597 12.9504L14.2196 13.3684C13.0341 14.4701 11.7521 15.4675 10.3909 16.3463L10.001 16.5915L10.12 16.6665C8.40037 15.609 6.79475 14.3599 5.33814 12.9453C4.3625 11.9746 3.6156 10.7848 3.16002 9.47196C2.33169 6.89834 3.40618 4.26843 5.77624 3.50538C7.02772 3.10282 8.39209 3.30241 9.47883 4.04523ZM13.2252 5.40312C12.9045 5.30078 12.5616 5.47753 12.4591 5.79791C12.3567 6.11829 12.5336 6.46097 12.8543 6.56331C13.4845 6.76446 13.9338 7.33169 13.9901 8.0008C14.0183 8.33594 14.313 8.58479 14.6484 8.55662C14.9839 8.52845 15.2329 8.23392 15.2047 7.89877C15.1073 6.74049 14.3264 5.75459 13.2252 5.40312Z" fill="black"/>
</svg>
