<svg width="24" height="24" viewBox="0 0 24 24" fill="none" xmlns="http://www.w3.org/2000/svg">
<path fill-rule="evenodd" clip-rule="evenodd" d="M20.3394 7.65929C21.0094 8.17829 21.4204 8.94929 21.4904 9.78829L21.5004 9.98929V18.0983C21.5004 20.1883 19.8494 21.8883 17.7804 21.9983H15.7904C14.8394 21.9793 14.0704 21.2393 14.0004 20.3093L13.9904 20.1683V17.3093C13.9904 16.9983 13.7594 16.7393 13.4504 16.6883L13.3604 16.6783H10.6894C10.3704 16.6883 10.1104 16.9183 10.0704 17.2183L10.0604 17.3093V20.1593C10.0604 20.2183 10.0494 20.2883 10.0404 20.3383L10.0304 20.3593L10.0194 20.4283C9.90037 21.2793 9.20037 21.9283 8.33037 21.9893L8.20037 21.9983H6.41037C4.32037 21.9983 2.61037 20.3593 2.50037 18.2983V9.98929C2.50937 9.13829 2.88037 8.34829 3.50037 7.79829L9.73037 2.78829C11.0004 1.77929 12.7804 1.73929 14.0894 2.66829L14.2504 2.78829L20.3394 7.65929ZM20.0994 18.2583L20.1104 18.0983V9.99829C20.0994 9.56929 19.9204 9.16829 19.6104 8.86929L19.4804 8.75829L13.3804 3.87829C12.6204 3.26829 11.5404 3.23929 10.7404 3.76829L10.5894 3.87829L4.50937 8.77929C4.16037 9.03829 3.95037 9.42829 3.90037 9.83829L3.88937 9.99829V18.0983C3.88937 19.4283 4.92937 20.5183 6.25037 20.5983H8.20037C8.42037 20.5983 8.61037 20.4493 8.63937 20.2393L8.66037 20.0593L8.67037 20.0083V17.3093C8.67037 16.2393 9.49037 15.3693 10.5404 15.2883H13.3604C14.4294 15.2883 15.2994 16.1093 15.3804 17.1593V20.1683C15.3804 20.3783 15.5304 20.5593 15.7304 20.5983H17.5894C18.9294 20.5983 20.0194 19.5693 20.0994 18.2583Z" fill="#200E32"/>
</svg>
