<svg width="18" height="18" viewBox="0 0 18 18" fill="none" xmlns="http://www.w3.org/2000/svg">
<path fill-rule="evenodd" clip-rule="evenodd" d="M8.67624 0.666656C4.25265 0.666656 0.666626 4.17348 0.666626 8.49937C0.666626 12.8253 4.25265 16.3321 8.67624 16.3321C10.5682 16.3321 12.3069 15.6906 13.6774 14.6179L16.2808 17.1572L16.3501 17.2155C16.5918 17.3904 16.9345 17.3705 17.1532 17.1561C17.3938 16.9202 17.3933 16.5383 17.1521 16.303L14.5793 13.7936C15.8874 12.3995 16.6859 10.5406 16.6859 8.49937C16.6859 4.17348 13.0998 0.666656 8.67624 0.666656ZM8.67625 1.87311C12.4185 1.87311 15.4522 4.83979 15.4522 8.49937C15.4522 12.159 12.4185 15.1256 8.67625 15.1256C4.93401 15.1256 1.90032 12.159 1.90032 8.49937C1.90032 4.83979 4.93401 1.87311 8.67625 1.87311Z" fill="black"/>
</svg>
